<svg width="18" height="24" viewBox="0 0 18 24" fill="none" xmlns="http://www.w3.org/2000/svg">
<g clip-path="url(#clip0_23_25)">
<path d="M9 0C7.78037 0 6.17575 0.622408 4.9173 1.55072C4.28809 2.01486 3.74441 2.55469 3.37237 3.1036C3.00025 3.65257 2.80962 4.19347 2.80962 4.67734C2.80962 4.7311 2.84036 4.86765 2.95802 5.06249C3.07556 5.25727 3.26754 5.49506 3.51159 5.75113C3.99969 6.26317 4.69248 6.85305 5.43307 7.50051C6.72214 8.62753 8.16709 9.91014 9 11.4815C9.83291 9.91009 11.2779 8.62753 12.567 7.50051C13.3075 6.85305 14.0003 6.26317 14.4884 5.75108C14.7325 5.49506 14.9244 5.25727 15.042 5.06249C15.1596 4.86771 15.1904 4.7311 15.1904 4.67734C15.1904 4.19347 14.9998 3.65262 14.6276 3.1036C14.2556 2.55469 13.7119 2.01486 13.0827 1.55072C11.8242 0.622408 10.2196 0 9 0ZM5.06439 2.95694C5.72033 2.95694 8.34407 5.53753 8.34407 7.25793C6.31776 5.52969 5.06439 5.53753 5.06439 5.53753C4.40846 4.67734 4.40846 2.95694 5.06439 2.95694ZM12.9356 2.95694C13.5915 2.95694 13.5915 4.67734 12.9356 5.53753C12.9356 5.53753 11.6822 5.52969 9.65593 7.25793C9.65593 5.53753 12.2797 2.95694 12.9356 2.95694ZM3.60449 9.85482C3.55287 9.85482 3.50187 9.85681 3.45157 9.86057C3.43821 9.8616 3.42517 9.86353 3.41189 9.86477C3.60137 10.0497 3.76466 10.2804 3.89552 10.5379C4.19048 11.1181 4.33614 11.8458 4.26177 12.5771C4.20692 13.1165 4.02265 13.6553 3.69952 14.1028C3.77068 14.206 3.83661 14.3216 3.90409 14.4489C4.19425 14.996 4.48397 15.7777 4.77492 16.6669C4.82412 16.8173 4.87315 16.9707 4.92193 17.126C5.35846 16.7686 5.84832 16.5384 6.37552 16.56C6.45537 16.5632 6.53502 16.5722 6.61412 16.5869C7.12997 16.6823 7.65484 17.0146 8.19972 17.6111C8.25496 17.4929 8.30898 17.3737 8.36178 17.2536C8.18254 16.3901 7.88696 15.3929 7.5191 14.425C6.75051 12.4026 5.60956 10.5338 4.78509 10.1478C4.35746 9.94751 3.96562 9.85461 3.60449 9.85477V9.85482ZM14.3955 9.85482C14.0343 9.85461 13.6425 9.94751 13.2149 10.1478C12.3904 10.5338 11.2495 12.4026 10.4809 14.425C10.113 15.3929 9.81746 16.3901 9.63822 17.2536C9.68988 17.3715 9.74444 17.4912 9.80028 17.6111C10.3451 17.0146 10.87 16.6823 11.3858 16.5869C11.4662 16.572 11.5457 16.5633 11.6244 16.56C12.1516 16.5384 12.6415 16.7686 13.0781 17.1261C13.1269 16.9707 13.1758 16.8173 13.2251 16.6669C13.516 15.7777 13.8057 14.996 14.0959 14.4489C14.1634 14.3216 14.2293 14.206 14.3005 14.1028C13.9774 13.6553 13.7931 13.1165 13.7382 12.5771C13.6639 11.8458 13.8095 11.118 14.1045 10.5379C14.2353 10.2804 14.3986 10.0497 14.5881 9.86477C14.5748 9.86353 14.5618 9.86154 14.5485 9.86057C14.4976 9.85676 14.4466 9.85484 14.3956 9.85482H14.3955ZM2.38178 10.3773C2.32513 10.3779 2.26861 10.3849 2.21288 10.3983C2.04291 10.5421 1.88126 10.712 1.72683 10.905C0.942089 11.8856 0.38147 13.5221 0.138897 15.3613C-0.103717 17.2003 -0.0317692 19.2327 0.380527 20.9735C0.66426 22.1717 1.10841 23.2168 1.70666 24C1.39993 22.6296 1.19061 21.0935 1.18491 19.5747C1.17704 17.4707 1.56027 15.3771 2.67269 13.9097C2.73701 13.8249 2.82438 13.7524 2.91994 13.7111C3.30903 13.3574 3.48281 12.9162 3.53024 12.4493C3.57886 11.971 3.47855 11.4622 3.28156 11.0746C3.08454 10.6871 2.80544 10.434 2.49952 10.3862C2.46127 10.3803 2.42204 10.3771 2.38178 10.3773V10.3773ZM15.6182 10.3773C15.5789 10.3771 15.5395 10.3801 15.5005 10.3862C15.1946 10.434 14.9155 10.6871 14.7184 11.0746C14.5215 11.4622 14.4211 11.971 14.4698 12.4492C14.5172 12.9162 14.691 13.3574 15.0801 13.7111C15.1756 13.7524 15.263 13.8249 15.3273 13.9097C16.4397 15.3771 16.823 17.4707 16.8151 19.5746C16.8094 21.0935 16.6001 22.6296 16.2933 24C16.8916 23.2168 17.3357 22.1717 17.6195 20.9735C18.0318 19.2327 18.1037 17.2003 17.8611 15.3613C17.6185 13.5222 17.0579 11.8855 16.2732 10.9049C16.1187 10.712 15.9571 10.5421 15.7872 10.3982C15.7314 10.3848 15.6749 10.3778 15.6182 10.3773V10.3773ZM7.66927 10.9593L7.4779 12.3395C7.7297 12.8675 7.96424 13.427 8.17947 13.9934C8.52133 14.8928 8.80396 15.8125 8.99988 16.6631C9.19584 15.8125 9.47863 14.8928 9.82045 13.9934C10.0357 13.427 10.2702 12.8674 10.522 12.3395L10.3306 10.9593C9.89802 11.5083 9.54545 12.0704 9.33002 12.6356L9 13.501L8.66998 12.6355C8.45451 12.0704 8.10194 11.5082 7.66931 10.9592L7.66927 10.9593ZM6.27016 17.5252C6.24384 17.5257 6.21757 17.5273 6.19145 17.5297C5.87804 17.5584 5.57971 17.7175 5.26576 17.9857C4.50681 18.6341 4.075 19.5701 3.89113 20.7954C3.75445 21.7063 3.76638 22.7749 3.91232 23.9508C4.20545 23.1938 4.51763 22.3109 4.82145 21.5386C5.05824 20.9368 5.2836 20.4111 5.53802 20.0359C5.66523 19.8483 5.79965 19.6826 6.00353 19.6009C6.20744 19.5192 6.48326 19.617 6.63712 19.8188L7.25685 20.6315C7.34143 20.5176 7.48176 20.2093 7.59503 19.8628C7.76201 19.3517 7.86769 18.8775 7.92669 18.5983C7.37742 17.9302 6.90855 17.6187 6.51102 17.5451C6.43125 17.5302 6.35072 17.5235 6.27016 17.5252V17.5252ZM11.7298 17.5252C11.6493 17.5235 11.5687 17.5302 11.489 17.5451C11.0914 17.6187 10.6226 17.9302 10.0734 18.5983C10.1323 18.8775 10.238 19.3517 10.405 19.8628C10.5182 20.2093 10.6586 20.5176 10.7431 20.6315L11.3629 19.8188C11.5167 19.617 11.7926 19.5192 11.9965 19.6009C12.2003 19.6826 12.3348 19.8484 12.462 20.0359C12.7164 20.4111 12.9418 20.9368 13.1786 21.5386C13.4824 22.3109 13.7946 23.1939 14.0877 23.9508C14.2336 22.7749 14.2456 21.7062 14.1089 20.7954C13.925 19.5701 13.4932 18.634 12.7342 17.9857C12.4203 17.7175 12.122 17.5584 11.8085 17.5296C11.7823 17.5272 11.7561 17.5257 11.7298 17.5251V17.5252ZM9 17.7379C8.91908 17.9231 8.83536 18.1062 8.7489 18.2871L8.75267 18.292L8.70196 18.5579C8.70196 18.5579 8.53589 19.4402 8.27318 20.244C8.14187 20.6459 7.9981 21.0301 7.77476 21.3229C7.66312 21.4693 7.51763 21.609 7.31765 21.6381C7.11767 21.6672 6.90769 21.542 6.77134 21.3632L6.64015 21.1912C6.50733 21.2792 6.37101 21.3518 6.23069 21.4038C6.26531 21.4832 6.3034 21.5599 6.34478 21.6336C6.52955 21.9607 6.80118 22.3443 7.11115 22.6999C7.73101 23.4112 8.52855 23.9781 9 23.9781C9.47145 23.9781 10.2689 23.4112 10.8888 22.6999C11.1988 22.3443 11.4705 21.9607 11.6552 21.6336C11.6966 21.5599 11.7347 21.4832 11.7693 21.4038C11.629 21.3518 11.4927 21.2792 11.3598 21.1912L11.2287 21.3633C11.0923 21.542 10.8823 21.6672 10.6823 21.6381C10.4824 21.609 10.3369 21.4693 10.2252 21.3229C10.0019 21.0301 9.85813 20.6459 9.72682 20.244C9.46412 19.4402 9.298 18.5579 9.298 18.5579L9.24733 18.292L9.2511 18.2871C9.16464 18.1062 9.08092 17.9231 9 17.7379V17.7379Z" fill="#fff"/>
</g>
<defs>
<clipPath id="clip0_23_25">
<rect width="18" height="24" fill="white"/>
</clipPath>
</defs>
</svg>
