<svg width="12" height="24" viewBox="0 0 12 24" fill="none" xmlns="http://www.w3.org/2000/svg">
<g clip-path="url(#clip0_23_34)">
<path fill-rule="evenodd" clip-rule="evenodd" d="M5.28252 0.101323C2.63044 0.856807 3.21814 4.27104 6.00021 4.27104C8.369 4.27104 9.34085 1.63425 7.42302 0.410662C6.79121 0.00758542 6.00856 -0.10551 5.28252 0.101323ZM4.63297 4.53594C2.31561 4.81722 0.534579 5.67937 0.133497 6.71405C-0.0366316 7.15285 -0.0477911 13.202 0.121007 13.4889C0.586312 14.2799 1.90972 14.3517 2.41582 13.6135C2.55506 13.4104 2.56578 13.2508 2.60059 10.8536C2.6351 8.47615 2.66178 8.13583 2.80382 8.26061C2.83427 8.28744 2.87588 11.6515 2.89621 15.7363L2.93316 23.1632L3.15487 23.4391C3.80213 24.2445 5.12857 24.1694 5.63394 23.2987C5.77302 23.059 5.77849 22.8897 5.77849 18.8019C5.77849 14.697 5.8048 14.1449 6.00021 14.1449C6.19561 14.1449 6.22192 14.697 6.22192 18.8019C6.22192 22.8897 6.22739 23.059 6.36648 23.2987C6.87184 24.1694 8.19828 24.2445 8.84554 23.4391L9.06726 23.1632L9.10421 15.7363C9.12453 11.6515 9.16614 8.28744 9.19659 8.26061C9.33863 8.13583 9.36531 8.47615 9.39983 10.8536C9.44077 13.672 9.43294 13.6275 9.94266 13.9337C10.5932 14.3245 11.5881 14.0777 11.8857 13.4518C12.0509 13.1042 12.0314 7.13915 11.8635 6.70236C11.2984 5.2314 7.72485 4.16073 4.63297 4.53594Z" fill="#fff"/>
</g>
<defs>
<clipPath id="clip0_23_34">
<rect width="12" height="24" fill="white"/>
</clipPath>
</defs>
</svg>
