<svg width="28" height="28" viewBox="0 0 28 28" fill="none" xmlns="http://www.w3.org/2000/svg">
<g clip-path="url(#clip0_21_44)">
<path d="M20.0059 19.1579C19.4164 19.1579 18.9193 18.9491 18.5145 18.5316C18.1088 18.114 17.9304 17.6228 17.9796 17.0579C18.0533 16.0263 18.2989 15.1298 18.7164 14.3684C19.134 13.607 19.7971 12.8211 20.7059 12.0105C21.7129 11.1263 22.4802 10.3585 23.0078 9.70716C23.5363 9.05677 23.8006 8.31403 23.8006 7.47895C23.8006 6.47193 23.4631 5.63684 22.7882 4.97368C22.1123 4.31053 21.1726 3.97895 19.969 3.97895C19.1831 3.97895 18.514 4.14449 17.9619 4.47558C17.4088 4.80765 16.9603 5.2193 16.6164 5.71053C16.2726 6.20175 15.8491 6.53333 15.3461 6.70526C14.8421 6.87719 14.3568 6.86491 13.8901 6.66842C13.3252 6.42281 12.9386 6.01754 12.7303 5.45263C12.521 4.88772 12.5638 4.35965 12.8585 3.86842C13.5708 2.76316 14.5287 1.84211 15.7322 1.10526C16.9357 0.368421 18.348 0 19.969 0C22.548 0 24.5316 0.718666 25.9198 2.156C27.307 3.59235 28.0006 5.31754 28.0006 7.33158C28.0006 8.55965 27.7368 9.60989 27.2093 10.4823C26.6807 11.3538 25.8515 12.3421 24.7217 13.4474C23.8866 14.2333 23.2971 14.8719 22.9533 15.3632C22.6094 15.8544 22.3761 16.4193 22.2533 17.0579C22.155 17.6719 21.8971 18.1754 21.4796 18.5684C21.062 18.9614 20.5708 19.1579 20.0059 19.1579ZM19.969 28C19.1585 28 18.4649 27.7116 17.8882 27.1349C17.3105 26.5573 17.0217 25.8632 17.0217 25.0526C17.0217 24.2421 17.3105 23.548 17.8882 22.9703C18.4649 22.3936 19.1585 22.1053 19.969 22.1053C20.7796 22.1053 21.4737 22.3936 22.0514 22.9703C22.6281 23.548 22.9164 24.2421 22.9164 25.0526C22.9164 25.8632 22.6281 26.5573 22.0514 27.1349C21.4737 27.7116 20.7796 28 19.969 28Z" fill="black"/>
<path d="M7.40591 19.1579C6.81644 19.1579 6.31931 18.9491 5.91454 18.5316C5.50879 18.114 5.33047 17.6228 5.37959 17.0579C5.45328 16.0263 5.69889 15.1298 6.11644 14.3684C6.53398 13.607 7.19714 12.8211 8.10591 12.0105C9.11293 11.1263 9.88023 10.3585 10.4078 9.70716C10.9364 9.05677 11.2006 8.31403 11.2006 7.47895C11.2006 6.47193 10.8632 5.63684 10.1882 4.97368C9.5123 4.31053 8.57258 3.97895 7.36907 3.97895C6.5831 3.97895 5.91405 4.14449 5.36191 4.47558C4.80879 4.80765 4.3603 5.2193 4.01644 5.71053C3.67258 6.20175 3.24914 6.53333 2.74612 6.70526C2.24212 6.87719 1.75679 6.86491 1.29012 6.66842C0.725208 6.42281 0.338611 6.01754 0.13033 5.45263C-0.0789328 4.88772 -0.0361954 4.35965 0.258541 3.86842C0.970822 2.76316 1.92872 1.84211 3.13223 1.10526C4.33573 0.368421 5.74802 0 7.36907 0C9.94802 0 11.9316 0.718666 13.3198 2.156C14.707 3.59235 15.4006 5.31754 15.4006 7.33158C15.4006 8.55965 15.1369 9.60989 14.6093 10.4823C14.0807 11.3538 13.2515 12.3421 12.1217 13.4474C11.2866 14.2333 10.6971 14.8719 10.3533 15.3632C10.0094 15.8544 9.77609 16.4193 9.65328 17.0579C9.55503 17.6719 9.29714 18.1754 8.87959 18.5684C8.46205 18.9614 7.97082 19.1579 7.40591 19.1579ZM7.36907 28C6.55854 28 5.86493 27.7116 5.28823 27.1349C4.71054 26.5573 4.4217 25.8632 4.4217 25.0526C4.4217 24.2421 4.71054 23.548 5.28823 22.9703C5.86493 22.3936 6.55854 22.1053 7.36907 22.1053C8.17959 22.1053 8.8737 22.3936 9.45138 22.9703C10.0281 23.548 10.3164 24.2421 10.3164 25.0526C10.3164 25.8632 10.0281 26.5573 9.45138 27.1349C8.8737 27.7116 8.17959 28 7.36907 28Z" fill="black"/>
</g>
<defs>
<clipPath id="clip0_21_44">
<rect width="28" height="28" fill="white"/>
</clipPath>
</defs>
</svg>
